<svg xmlns="http://www.w3.org/2000/svg" xmlns:xlink="http://www.w3.org/1999/xlink" width="37" height="40"><defs><path id="a" d="M999.49 616h-17.96c-2.5 0-4.53-1.03-4.53-3.53V582h-2a1 1 0 1 1 0-2h32a1 1 0 1 1 0 2h-2v27.34zM979 582v30.47c0 1.4 1.14 1.53 2.53 1.53H996v-3.66c0-1.84.5-2.34 2.34-2.34h4.66v-26zm19 7h-14a1 1 0 1 1 0-2h14a1 1 0 1 1 0 2zm0 6h-14a1 1 0 1 1 0-2h14a1 1 0 1 1 0 2zm0 6h-14a1 1 0 1 1 0-2h14a1 1 0 1 1 0 2zm.34 9c-.25 0-.37-.05-.42-.08.03.05.08.17.08.42V614h.51l3.36-4z"/></defs><use fill="#fff" xlink:href="#a" transform="translate(-973 -578)"/></svg>