<svg xmlns="http://www.w3.org/2000/svg" xmlns:xlink="http://www.w3.org/1999/xlink" width="62" height="60"><defs><path id="a" d="M735.39 452.42a1 1 0 1 1 0-1.98c6.78 0 12.3 5.5 12.3 12.24a1 1 0 0 1-1 1 1 1 0 0 1-1-1 10.3 10.3 0 0 0-10.3-10.26zm20.02 11.88c0-11.7-9.55-21.2-21.29-21.2a1 1 0 1 1 0-2 23.26 23.26 0 0 1 23.29 23.2 1 1 0 0 1-1 .99 1 1 0 0 1-1-1zm9.59 1.3c0-17.49-14.3-31.72-31.87-31.72a1 1 0 1 1 0-1.99A33.82 33.82 0 0 1 767 465.61a1 1 0 0 1-1 .99 1 1 0 0 1-1-1zm-24.23 23.28a16.9 16.9 0 0 1-6.5-2.06c-6.59-3.36-13.85-11.66-13.92-11.74-.07-.08-7.34-8.4-9.76-15.36-2.6-7.5-.38-10.84 2.42-13.34 2.17-1.89 3.35-2.19 4.38-2.45l.25-.07c.48-.15.9-.23 1.23-.2.49.02.88.3 1.34.93.58.83 2.57 4.28 4.56 7.74.37.62.67 1.16.86 1.5l.15.27c.19.32.53.92.25 1.6-.21.52-.67.91-1.4 1.21-1.67.7-3.54 1.87-3.9 2.78-.04.1-.09.18 0 .48.73 1.41 6.1 7.52 6.88 8.31l.08.09c.68.87 5.97 6.96 7.3 7.92.13.05.25.1.31.1.28.02 1.35-.18 3.5-3.52.33-.5.75-1.04 1.42-1.17.63-.12 1.16.2 1.5.44.22.12.61.44 1.15.89l.65.52a211.1 211.1 0 0 1 6.98 5.47c1.1.99 1.02 1.55.54 2.8v.03l-.1.23c-.41.99-.87 2.1-3.04 3.98-2.11 1.83-4.06 2.65-6.4 2.65l-.73-.03zm-5.58-3.82a14.97 14.97 0 0 0 5.72 1.84c2.1.14 3.76-.47 5.68-2.14 1.81-1.57 2.15-2.38 2.5-3.23l.1-.23.16-.44-.19-.17c-.73-.67-4.72-3.73-6.86-5.37l-.69-.56c-.4-.33-.82-.67-.98-.76l-.03-.03-.11.17c-1.39 2.14-3.26 4.57-5.32 4.43-.4-.03-.75-.17-1.03-.28a1.05 1.05 0 0 1-.16-.09c-1.57-1.02-7.18-7.56-7.83-8.37-.72-.76-6.46-7.18-7.25-8.88a.86.86 0 0 1-.05-.11c-.09-.27-.35-1.1.05-1.95.77-1.94 4-3.4 4.97-3.8l.14-.08-.12-.22a43.2 43.2 0 0 0-.84-1.45c-1.37-2.39-3.9-6.8-4.46-7.6l-.05-.07-.34.1-.3.08c-.9.23-1.76.45-3.57 2.01-2.7 2.42-3.97 5.15-1.86 11.21 2.3 6.59 9.32 14.62 9.39 14.7.07.09 7.09 8.11 13.33 11.29z"/></defs><use fill="#fff" xlink:href="#a" transform="translate(-706 -430)"/></svg>