<svg xmlns="http://www.w3.org/2000/svg" xmlns:xlink="http://www.w3.org/1999/xlink" width="62" height="53"><defs><path id="a" d="M1087.72 424.25a1 1 0 0 1-.9-1.44c1.2-2.52 1.67-4.8 1.39-6.77a6.36 6.36 0 0 1-6.21-6.36v-23.32c0-3.51 2.85-6.36 6.35-6.36h33.3c3.5 0 6.35 2.85 6.35 6.36v23.32c0 3.5-2.85 6.36-6.35 6.36h-22.95c-2.47 5.38-8.3 8-10.9 8.2h-.08zm.63-42.25a4.36 4.36 0 0 0-4.35 4.36v23.32c0 2.4 1.95 4.36 4.35 4.36h.08c.86.04 1.6.7 1.74 1.57.3 1.89.04 3.97-.76 6.2 2.31-.85 5.81-2.91 7.5-6.67.3-.67.97-1.1 1.7-1.1h23.04c2.4 0 4.35-1.96 4.35-4.36v-23.32c0-2.4-1.95-4.36-4.35-4.36zm47.65 48h-.08c-1.91-.16-6.18-2.06-8.05-5.95h-19.45a5.43 5.43 0 0 1-5.42-5.43v-.58h2v.58a3.43 3.43 0 0 0 3.42 3.42h19.78c.6.04 1.14.41 1.39.96a9.17 9.17 0 0 0 4.74 4.48 8.96 8.96 0 0 1-.37-4.06c.11-.76.76-1.34 1.53-1.37a3.45 3.45 0 0 0 3.51-3.43v-19.18a3.43 3.43 0 0 0-3.42-3.42H1130v-2h5.58a5.43 5.43 0 0 1 5.42 5.42v19.18a5.43 5.43 0 0 1-5.1 5.42 8.65 8.65 0 0 0 1 4.52 1 1 0 0 1-.9 1.44z"/></defs><use fill="#fff" xlink:href="#a" transform="translate(-1080 -378)"/></svg>