<svg xmlns="http://www.w3.org/2000/svg" xmlns:xlink="http://www.w3.org/1999/xlink" width="46" height="35"><defs><path id="a" d="M663 706.5a6.02 6.02 0 0 1 0-12.03 6.02 6.02 0 0 1 4.47 10.03h6.06a6 6 0 1 1 4.47 2h-14.26a1 1 0 0 1-.22-.01l-.52.02zm0-10.02a4.01 4.01 0 0 0 0 8.02 4.01 4.01 0 0 0 0-8.02zm15 0a4.01 4.01 0 0 0 0 8.02 4.01 4.01 0 0 0 0-8.02zm-7.5 20.51c-5.62 0-11.24-.26-16.82-.78a5.14 5.14 0 0 1-4.68-5.15v-20.14c0-2.69 2.01-4.9 4.68-5.15a181.72 181.72 0 0 1 33.64 0 5.15 5.15 0 0 1 4.68 5.15v20.14c0 2.69-2.01 4.9-4.68 5.15-5.58.52-11.2.78-16.82.78zm0-30c-5.56 0-11.12.26-16.64.78a3.15 3.15 0 0 0-2.86 3.15v20.14c0 1.64 1.23 3 2.86 3.15a179.42 179.42 0 0 0 33.28 0 3.15 3.15 0 0 0 2.86-3.15v-20.14c0-1.64-1.23-3-2.86-3.15a179.1 179.1 0 0 0-16.64-.77z"/></defs><use fill="#fff" xlink:href="#a" transform="translate(-648 -683)"/></svg>