<svg xmlns="http://www.w3.org/2000/svg" xmlns:xlink="http://www.w3.org/1999/xlink" width="47" height="39"><defs><path id="a" d="M959.21 267.8l-2.67.9-.2 2.74a1.71 1.71 0 0 1-1.8 1.58l-2.78-.15-1.25 2.52 1.81 2.08c.62.7.55 1.77-.15 2.4l-2.07 1.84.9 2.66 2.76.2c.93.06 1.65.86 1.6 1.8l-.16 2.76 2.53 1.24 2.08-1.8a1.72 1.72 0 0 1 2.41.15l1.85 2.06 2.68-.9.2-2.74a1.71 1.71 0 0 1 1.8-1.59l2.77.15 1.25-2.52-1.8-2.07a1.7 1.7 0 0 1 .14-2.4l2.08-1.84-.9-2.67-2.76-.2a1.71 1.71 0 0 1-1.6-1.8l.16-2.75-2.54-1.25-2.08 1.8a1.72 1.72 0 0 1-2.4-.15zm.19-1.81c.31 0 .62.13.83.37l2.11 2.35 2.39-2.06a1.12 1.12 0 0 1 1.23-.16l3.24 1.6c.4.2.65.62.62 1.07l-.18 3.14 3.16.22c.45.03.84.33.98.76l1.16 3.41c.14.43.02.9-.31 1.19l-2.37 2.1 2.08 2.38c.29.34.35.82.15 1.22l-1.6 3.24a1.12 1.12 0 0 1-1.07.61l-3.17-.17-.21 3.13c-.03.45-.33.84-.76.98l-3.43 1.16a1.13 1.13 0 0 1-1.2-.32l-2.1-2.35-2.4 2.07a1.12 1.12 0 0 1-1.22.15l-3.25-1.6c-.4-.2-.64-.6-.62-1.05l.18-3.16-3.15-.22a1.12 1.12 0 0 1-.98-.75l-1.16-3.42a1.1 1.1 0 0 1 .31-1.19l2.36-2.1-2.07-2.38c-.3-.34-.36-.82-.16-1.23l1.61-3.22a1.12 1.12 0 0 1 1.07-.62l3.16.18.22-3.14c.03-.45.33-.84.76-.98l3.43-1.15c.12-.04.24-.06.36-.06zm2.24 18.9a5.62 5.62 0 0 1-5.62-5.6 5.62 5.62 0 0 1 11.25 0c0 3.09-2.52 5.6-5.63 5.6zm0-9.5a3.9 3.9 0 0 0-3.9 3.9 3.9 3.9 0 0 0 7.81 0 3.9 3.9 0 0 0-3.9-3.9zm-19.96 20.83a3.9 3.9 0 0 1-3.9-3.9 3.9 3.9 0 0 1 7.81 0 3.9 3.9 0 0 1-3.9 3.9zm0-6.08c-1.2 0-2.19.98-2.19 2.18a2.19 2.19 0 0 0 4.38 0c0-1.2-.98-2.18-2.19-2.18zm-1.9-5.63l-1.37.46-.11 1.68a1.71 1.71 0 0 1-1.81 1.59l-1.7-.1-.64 1.28 1.1 1.27c.62.71.56 1.78-.14 2.4l-1.28 1.13.46 1.36 1.7.11c.93.07 1.64.87 1.59 1.8l-.1 1.7 1.29.64 1.27-1.11a1.72 1.72 0 0 1 2.41.15l1.14 1.27 1.36-.46.11-1.68a1.71 1.71 0 0 1 1.81-1.59l1.7.1.64-1.28-1.1-1.27a1.7 1.7 0 0 1 .14-2.4l1.28-1.14-.46-1.35-1.7-.12a1.71 1.71 0 0 1-1.59-1.8l.1-1.7-1.28-.63-1.28 1.1a1.72 1.72 0 0 1-2.41-.14zm.27-1.85c.23 0 .45.1.6.27l1.54 1.7 1.73-1.5a.81.81 0 0 1 .9-.1l2.36 1.16c.29.14.47.45.45.77l-.13 2.29 2.29.16c.33.02.61.23.72.54l.84 2.49c.1.3.01.65-.23.86l-1.72 1.53 1.5 1.73c.22.24.27.6.12.88l-1.17 2.36a.82.82 0 0 1-.77.44l-2.3-.12-.16 2.28a.8.8 0 0 1-.55.71l-2.5.84a.82.82 0 0 1-.86-.23l-1.54-1.71-1.73 1.5a.82.82 0 0 1-.9.12l-2.35-1.17a.8.8 0 0 1-.46-.76l.13-2.3-2.28-.16a.81.81 0 0 1-.72-.55l-.84-2.48a.8.8 0 0 1 .22-.86l1.72-1.53-1.5-1.73a.8.8 0 0 1-.12-.9l1.17-2.34a.81.81 0 0 1 .77-.45l2.3.13.16-2.28c.02-.33.24-.6.55-.71l2.5-.84a.82.82 0 0 1 .26-.04z"/></defs><use fill="#fff" xlink:href="#a" transform="translate(-930 -264)"/></svg>